<?xml version="1.0" encoding="utf-8"?>
<!-- Generator: Adobe Illustrator 16.0.0, SVG Export Plug-In . SVG Version: 6.00 Build 0)  -->
<!DOCTYPE svg PUBLIC "-//W3C//DTD SVG 1.1//EN" "http://www.w3.org/Graphics/SVG/1.1/DTD/svg11.dtd">
<svg version="1.1" id="Layer_1" xmlns="http://www.w3.org/2000/svg" xmlns:xlink="http://www.w3.org/1999/xlink" x="0px" y="0px"
	 width="500px" height="438.816px" viewBox="311.926 891.034 500 438.816" enable-background="new 311.926 891.034 500 438.816"
	 xml:space="preserve">
<g>
	<path fill="#231F20" d="M349.323,1108.92c7.936,0,17.513-4.013,27.09-3.192c1.55-4.014,1.55-7.936,3.192-11.948
		c1.551-4.743,4.014-9.578,5.564-14.32c0.821-1.551,0.821-4.014,1.551-5.564c0.821-1.55,0.821-2.371,1.55-4.014
		c0-0.82,0.821-1.55,0.821-2.371c0-0.82,0-1.551,0-2.371c0-0.821,0.821-1.551,0.821-2.372c0.821-1.55,0.821-4.014,1.55-5.563
		c0.821-3.192,2.372-5.564,3.193-8.757c0.821-3.191,1.55-5.563,2.371-8.756s2.372-4.743,3.192-7.936
		c1.551-3.192,1.551-7.206,3.192-10.398c1.551-4.013,2.372-7.206,3.192-11.128c1.551-6.385,4.743-12.77,7.936-19.154
		c1.551-4.013,4.013-7.936,4.743-12.77c0-1.55,0.821-3.192,0.821-4.743c0.821-1.551,1.551-4.743,3.192-4.743
		c2.372-0.821,6.385,4.743,7.936,6.385c0.821,0.821,1.55,2.372,2.371,3.192c0.821,0.821,1.551,2.372,1.551,3.192
		c0,1.55,0,2.372,0,4.014c-0.821,2.371-1.551,5.563-2.372,7.935c-0.821,1.551-0.821,2.372-1.55,4.014
		c-1.551,4.743-3.192,8.756-4.743,12.77c-2.372,6.385-4.743,11.948-7.206,18.334c-1.551,4.013-2.372,8.756-4.013,12.77
		c-1.551,4.742-3.193,9.576-4.743,15.141c-0.821,4.014-2.372,7.205-4.013,11.128c-1.642,3.922-2.372,7.206-4.014,11.128
		c-1.55,6.385-4.743,12.77-6.385,19.154c0,1.551-0.821,2.372-0.821,4.014c0,0.82-0.821,2.371-0.821,3.192
		c4.013,0.82,8.756,0.82,12.77,0.82c1.55-3.192,2.372-5.563,4.013-8.756c2.372-4.014,4.743-9.577,8.756-14.32
		c0.821-0.821,1.551-0.821,2.372-1.551c3.192-4.014,6.385-7.206,11.949-9.577c0.821-0.821,4.013-1.551,4.743-1.551
		c3.193,0,4.744,4.014,7.206,5.563c1.551,0.821,3.192,1.551,4.743,3.193c1.551,0.82,3.192,2.371,4.743,4.013
		c0.821,1.551,2.372,4.014,2.372,5.564c0,2.371-0.821,4.743-1.551,7.936c-0.821,4.742-0.821,7.935-3.193,11.128
		c-1.55,1.55-4.013,2.371-5.563,4.013c-0.821,0.821-1.551,1.551-3.192,1.551c-1.551,0.82-2.372,1.551-4.014,1.551
		c-1.551,0.82-3.192,0.82-4.743,1.551c-3.192,0.82-6.385,2.371-9.577,3.191c-0.821,0-5.564,0.821-5.564,0.821
		c-1.55,7.206,0,15.962,4.014,20.705c2.372,0.821,6.385-0.82,8.756-2.371c3.192-1.551,6.384-4.743,8.756-7.206
		c6.385-5.563,11.127-11.949,15.962-19.154c0.821-1.551,1.551-4.014,3.192-5.564c0.821-0.82,0.821-0.82,0.821-1.55
		c0.821-3.192,2.372-5.564,4.013-7.936c1.551-2.371,3.193-6.385,3.193-8.757c0.821-4.013-1.551-8.756,0-12.77
		c0.821-1.551,1.55-2.371,2.372-4.013c0.821-0.821,0.821-1.551,0.821-2.372c0-2.371,3.192-2.371,4.743-1.551
		c1.551,0.821,2.372,4.014,4.014,4.743c1.551,1.551,3.192,3.192,4.013,4.014c0.821,2.371,0,4.743,1.551,6.385
		c4.013-0.821,6.384-3.192,9.577-2.371c1.55,0,3.192,1.55,5.564,2.371c1.55,0.821,4.013,0.821,5.563,2.371
		c0.821,0.821,1.551,2.372,2.372,4.014c0.821,2.371,1.55,5.564,1.55,8.756c0,3.192-2.371,4.743-3.192,6.385
		c-7.936,7.206-14.32,15.142-17.513,26.36c0,0.821-0.821,3.193-0.821,4.014c0.821,0.821,3.192-1.551,4.013-2.371
		c0.821-0.821,0.821-0.821,1.55-1.552c1.551-1.55,3.192-3.192,5.564-4.742c3.192-3.192,7.206-6.385,9.577-10.398
		c-2.371-5.563,0.821-10.397,5.564-6.385c3.192-3.192,4.743-7.206,7.935-11.128c0.821-1.551,2.372-2.371,3.192-4.013
		c0.821-1.643,1.551-3.192,2.372-4.743c0.821-1.551,2.372-3.193,3.193-5.564c0.821-1.551,2.371-3.192,3.192-5.563
		c0.821-0.821,0.821-1.551,1.551-3.192c0-0.821,0.821-1.551,0.821-2.371c0-0.822,0-2.372,0-3.193c0-0.82,0-2.371,0-3.192
		c0-0.82,0-2.371,0-3.192c0-0.82,1.551-0.82,2.372-0.82c0,0,0-0.821,0-1.551l0.821-0.821c0.821-0.82,1.551-0.82,2.372-0.82
		c1.55,0,3.192,0.82,4.743,2.371c0.821,0.821,0.821,2.372,0.821,3.192c2.372,2.371,5.564,5.563,5.564,9.577
		c0,1.551-0.821,3.192-1.551,4.014c-0.821,5.563,0,12.77,1.551,18.333c1.55,5.564,2.372,12.77,2.372,19.155
		c1.55-0.821,2.371-2.372,3.192-4.014c1.551-3.192,4.014-6.385,5.563-9.577c1.551-4.014,3.192-7.206,5.564-10.398
		c0.82-1.551,2.371-3.192,4.014-4.742c2.371-4.014,4.742-7.206,7.205-10.398c1.551-1.551,4.014-4.014,6.385-5.564
		c0.821-0.821,2.372-1.551,3.192-2.371c0.821-0.821,1.551-2.372,3.192-2.372c0.821-0.82,2.371-0.82,3.192-0.82
		s2.372-0.821,3.192-0.821c2.372,0,4.743-0.82,6.385,0.821c1.551,0.82,4.014,2.371,5.564,4.013c0.821,1.551,2.371,4.014,4.014,4.743
		c0.82,0,1.55,0,1.55,0c0.821,0,2.372-0.821,3.192,0c0.821,0.821,1.551,1.551,1.551,3.192c0,2.372,0,4.743-0.82,6.385
		c0,0.821-0.821,1.551-0.821,2.371c0,0.822-0.821,1.551-1.551,2.372c-0.82,0.821-1.551,1.551-1.551,3.192
		c-0.82,1.551-0.82,2.372-1.55,4.014c-0.821,1.551-1.551,2.371-2.372,4.013c-0.82,2.372-1.551,4.014-5.564,2.372
		c-0.82-0.821-2.371-1.551-3.192-2.372c-0.82-0.82-1.55-0.82-2.371-2.371c-2.371,1.551-2.371,0.82-2.371-0.821
		c0-1.551-0.821-2.371-0.821-3.192c0-1.55,0.821-2.371,0.821-3.192c0-0.82,0.82-1.55,0-2.371c-0.821-0.82-2.372,0-3.192,0
		c-2.372,0.821-3.193,3.192-4.743,4.743c-2.372,2.371-4.743,4.743-6.385,7.935c-0.821,1.551-1.551,3.193-2.372,4.744
		c-0.82,1.55-2.371,3.191-2.371,4.742c-1.551,5.564-2.372,9.578,1.551,13.591c0.82,0.821,1.551,0.821,2.371,0.821
		c0.821,0,0.821,0.82,1.551,0.82c1.551,0.821,3.192,1.551,4.743,1.551c4.742-0.821,11.948-4.014,15.962-6.385
		c1.551-0.82,3.192-3.192,5.564-4.014c1.55-1.551,4.013-3.192,4.742-4.743c0-0.82,0.821-1.55,0.821-2.371
		c1.551-3.192,3.192-6.385,4.013-10.398c0.821-2.371,1.551-4.742,2.372-6.385c0.821-0.82,0.821-2.371,0.821-3.192
		c0.82-2.371,2.371-4.013,3.192-6.385c1.551-2.371,2.371-5.563,4.013-7.936c0.821-1.551,1.551-3.192,2.372-4.743
		c1.55-3.192,2.371-5.563,3.191-8.756c0.821-1.551,0.821-3.192,1.551-4.014c0.821-1.551,1.551-2.371,1.551-4.013
		c0-1.551,0.821-2.372,0.821-4.014c0.821-1.55,1.551-2.371,1.551-4.014c1.551-3.192,3.192-7.205,4.743-10.397
		c0.82-2.372,1.55-4.743,3.191-7.206c1.551-3.192,3.192-7.206,4.743-11.128c1.551-2.371,2.372-4.013,3.193-7.205
		c0.82-2.372,2.371-4.014,4.013-6.386c1.551-2.371,1.551-5.563,3.192-8.756c1.551-2.372,2.371-4.743,4.013-7.936
		c0.822-2.371,1.551-4.743,3.193-7.935c0.82-1.55,2.371-5.564,4.013-6.385c4.014-1.55,7.936,4.743,9.577,7.936
		c0.821,0.821,1.551,2.372,1.551,4.013c0,2.371,0,4.743-0.82,7.205c-1.551,7.206-4.743,12.77-7.206,18.334
		c-6.385,11.128-12.77,22.348-19.154,33.475c-0.821,1.551-2.371,3.192-3.192,4.743s-0.821,3.192-1.551,4.014
		c-0.821,1.55-1.551,2.371-2.372,4.013c-0.82,1.551-0.82,2.371-1.55,4.014c0,0.821-0.821,2.371-0.821,3.192
		c-0.821,0.821-0.821,2.371-1.551,3.192c2.372-0.821,4.014-1.551,5.564-3.192c0.821-0.821,1.551-1.551,2.371-1.551
		c1.551-0.82,4.014-1.551,5.564-2.371c1.55-0.821,4.013-0.821,6.384-0.821c2.372,0.821,4.744,2.372,6.386,4.014
		c1.551,0.82,3.192,2.371,4.013,3.192c0.821,1.55,2.372,3.192,3.193,4.742c0.82,4.014-0.821,6.386-1.551,9.578
		c0,1.55,0,3.192,0,4.742c0,1.551-0.821,2.372-1.551,4.014c-1.551,2.372-3.192,4.743-4.014,7.206
		c-0.82,1.551-0.82,3.192-1.551,4.013c-0.82,1.551-2.371,3.193-3.192,4.743c-0.82,1.551-1.55,3.192-1.55,4.743
		c-0.821,1.551-1.551,4.014-2.372,5.563c-0.82,1.551-2.371,5.564,0,6.386c1.551,0.82,5.563-1.551,7.206-3.192
		c1.55-1.551,3.192-2.372,4.743-4.014c1.551-1.551,3.192-2.372,4.743-4.014c1.55-1.551,3.191-3.192,4.742-5.563
		c0.821-3.192,0.821-7.936,1.551-11.128s2.371-6.385,4.014-9.577c4.013-7.936,8.756-13.591,15.962-19.154
		c1.551-1.551,2.371-2.372,4.013-3.192c4.014-1.551,9.578,0,11.949,2.371c1.551,1.551,4.014,3.192,5.563,4.743
		c2.372,2.371,6.386,4.013,7.206,7.936c0.821,1.55,0,3.192,0,5.563c-0.82,2.372-0.82,4.014-1.551,6.385
		c-0.82,2.372-1.55,4.743-2.371,6.386c-0.82,0.82-1.551,1.55-3.192,3.191c-1.551,1.551-4.014,3.192-6.385,5.564
		c-2.372,2.371-4.743,4.014-7.936,6.385c-1.551,0.821-4.014,4.013-7.206,3.192c-2.371-0.821-4.013-3.192-6.385-4.014
		c-1.551,4.743,1.551,9.577,4.014,13.591c0.82,0.821,1.551,1.551,2.371,1.551c3.192,0.821,5.564-0.821,7.936-2.371
		c4.014-2.372,5.564-5.564,8.757-7.937c1.55-1.55,4.013-2.371,4.742-4.013c0.821-0.821,2.372-2.371,3.193-4.014
		c1.55-2.371,4.013-5.563,6.385-7.205c0.82-0.821,2.371-1.551,4.013-3.192c0.821-0.821,2.371-2.372,3.192-4.014
		c3.192-4.014,4.014-6.385,4.743-11.949c0.821-3.192,0.821-7.205,0.821-10.397c0.82-3.192,0.82-6.385,1.55-9.577
		c0.821-2.372,0.821-4.014,0.821-6.386c1.551-9.576,5.564-18.333,8.757-27.91c0.82-2.372,0.82-4.743,1.551-7.206
		c0.82-2.371,2.371-4.013,2.371-6.385c0.82-1.551,0.82-4.013,1.551-5.563c0.82-1.551,2.371-3.192,3.192-5.564
		c0.82-1.55,1.55-3.193,2.371-5.564c3.192-7.206,6.385-14.32,10.398-21.526c1.551-3.193,4.013-7.206,5.563-10.398
		c1.551-2.371,1.551-6.384,4.743-7.206c2.372-0.821,7.206,1.55,9.577,3.192c3.192,2.372,0.82,8.756,0,12.77
		c-0.821,3.192-1.551,5.563-1.551,8.756c0,1.551,0,2.372-0.82,4.014c-0.821,3.192-1.551,6.385-2.372,9.577
		c-0.82,3.192-0.82,7.206-1.551,10.398c0,1.551-1.55,3.192-1.55,5.563c0,2.372,0,4.744-0.821,6.386
		c-1.551,3.192-2.371,5.563-3.192,8.756s-1.551,5.564-3.192,8.757c-1.551,2.371-2.372,4.742-3.192,7.205
		c-0.821,2.372-2.371,4.743-3.192,7.936c-1.551,4.013-3.192,7.936-5.564,11.949c-3.192,6.384-7.205,12.77-11.127,19.154
		c-0.821,1.55-1.551,2.371-2.372,4.014c-0.82,1.55-2.371,2.371-2.371,4.013c-0.821,3.192-0.821,8.757,0,13.591
		c0.82,3.192,0.82,6.385,0.82,9.577c0,1.551,0,3.192,0.821,4.013c0,0.821,0.821,2.372,1.551,3.192c1.551,0.821,4.013,0,5.563,0
		s3.192-0.82,4.743-1.551c1.551-0.82,2.372-1.55,4.014-2.371c1.551-0.821,2.371-1.551,4.013-2.371
		c3.193-0.821,5.564-4.014,7.936-6.385c1.551-1.551,4.014-5.564,6.385-6.385c3.192-0.821,4.743,3.191,3.192,6.385
		c-0.821,2.371-2.371,4.013-3.192,6.385c-1.551,2.371-3.192,4.742-4.742,7.206c-2.372,2.371-4.743,4.013-7.936,6.384
		c-0.821,0.821-0.821,1.551-1.551,1.551c-0.821,0.821-1.551,0.821-2.371,1.551c-1.551,0.821-3.193,1.551-4.744,3.192
		c-1.55,0.82-3.191,1.551-5.563,2.372c-2.371,0.82-5.564,0.82-7.936,0.82c-1.551,0-4.013,0-5.563-0.82
		c-1.551-0.821-3.192-2.372-4.743-3.193c-2.371-0.82-4.013-4.013-4.013-6.384c-0.822-3.192-1.551-6.386-1.551-9.578
		c0-1.551,0-4.013,0-5.563c-8.757,6.385-19.976,19.154-29.462,25.539c-2.372,1.551-7.206,1.551-10.397,0.821
		c-2.372-0.821-4.744-2.371-7.206-3.193c-1.551-0.82-3.192-1.55-4.743-3.191c-1.551-1.551-3.192-4.014-4.743-6.385
		c-0.82-0.821-1.551-2.372-3.192-3.192l-2.371,1.551c-0.821,0.82-1.551,1.55-2.372,2.371c-0.82,0.821-1.551,1.551-2.371,1.551
		c-1.551,1.551-3.192,2.371-4.743,3.192c-3.192,2.371-7.936,4.013-11.949,4.013c-1.55,0-2.371,0-4.013,0
		c-2.372,0-4.743-0.82-7.206-2.371c-1.551-0.821-4.013-1.551-5.564-4.014c-0.82-0.82-0.82-2.371-0.82-4.013
		c0-1.643,0.82-4.743,1.551-6.385c0.821-2.372,0.821-4.743,1.55-6.385c1.551-3.193,3.193-7.206,4.744-10.398
		c0.82-2.371,2.371-4.743,3.192-7.206c0.82-2.462,0.82-4.743,1.55-7.205c0-1.551,0.821-4.743-0.82-5.564
		c-2.372-2.371-7.936-0.821-10.398,0.821c-1.551,0.82-3.192,1.55-4.013,2.371c-0.821,0.821-2.372,0.821-3.192,2.372
		c-0.821,0.82-0.821,1.551-1.551,2.371c-0.821,0.821-1.552,1.551-3.193,3.192c-0.82,0.821-0.82,2.371-1.55,3.192
		c0,0.821-0.821,1.551-0.821,3.192c-0.821,1.551-1.551,4.014-2.371,5.564c-0.821,2.371-2.372,4.742-3.192,8.756
		c-1.551,4.743-4.014,10.398-4.743,15.962c-0.821,2.372-0.821,5.564-1.551,7.936c0,0.821-1.551,3.192-2.372,3.192
		c-0.82,0-3.191-0.821-4.742-1.551c-3.192-1.551-6.385-1.551-7.206-5.563c-2.372,0.82-4.743,2.371-6.385,3.192
		c-0.821,0.82-1.551,1.551-2.371,1.551c-0.821,0.82-2.372,0.82-3.192,0.82c-0.821,0-0.821,0-1.551,0.821
		c-0.821,0.82-1.551,0.82-3.193,0.82c-1.55,0-2.371,0-4.013,0c-2.371,0-5.563-0.82-7.936-0.82c-1.55,0-3.192,0-4.013-0.821
		c-1.551-0.82-2.372-1.551-3.192-2.371c-2.372-1.551-4.743-4.014-6.386-6.385c-1.551-2.371-2.371-5.564-3.192-8.757
		c-2.371,1.551-3.192,3.192-4.743,5.563c-1.55,1.552-2.372,4.014-4.013,6.386c-3.192,4.013-5.564,7.935-9.577,11.128
		c-3.192,2.371-9.578,4.013-14.32,4.013c-9.577-1.55-15.141-8.756-19.976-15.962c-3.192,3.192-7.206,7.206-11.948,11.128
		c-3.193,2.372-4.014,4.014-7.936,5.564c-2.372,0.82-4.743,1.55-7.206,1.55c-1.551,0-2.372,0-4.014-0.82
		c-0.821,0-2.372,0-3.192-0.821c-0.821-0.82-1.551-1.551-2.372-3.192c-0.821-2.371-1.55-5.563-2.371-7.936c0-1.551,0-3.192,0-4.742
		c0-1.551,0-4.014,0.821-5.564s1.55-4.014,1.55-5.564c0.821-2.371,1.551-4.742,3.192-7.205c0.821-1.551,4.013-5.564,3.192-6.385
		c0-3.192-5.564-2.372-7.206-4.014c-2.372,2.372-4.014,5.564-5.564,7.936c-0.821,1.551-1.551,2.371-2.372,4.013
		c-0.821,1.551-1.551,3.193-2.372,4.744c-0.821,1.55-2.371,2.371-3.192,4.013c-0.821,1.551-1.55,3.192-2.371,4.743
		c-2.372,3.192-3.192,6.385-5.564,8.757c-1.551,2.371-4.013,5.563-6.385,7.935c-2.371,2.372-5.563,5.564-8.756,7.206
		c-1.55,0.821-4.013,0.821-5.563,0.821c-2.372,0-4.743,0.82-6.385,0.82c-2.371,0.821-4.743,0.821-7.206,0.821
		c-1.55,0-3.192-1.551-5.564-1.551c-1.55-0.821-2.371-0.821-4.013-1.551c-1.551-0.821-2.372-2.371-3.192-3.192
		c-0.821-0.82-1.551-1.551-2.372-2.371c-3.192-5.564-4.013-13.591-4.013-21.526c-4.743-0.821-10.398-0.821-15.141-1.551
		c-0.821,0-4.014,11.128-4.014,12.77c-1.55,4.743-2.371,8.757-3.192,13.591c0,1.551-0.821,4.014-0.821,5.564
		c0,0.82-0.821,1.551-0.821,2.371c-2.372,7.205-4.743,13.591-7.206,20.705c0,1.551-0.821,2.371-1.551,3.192
		c-0.821,1.551-2.372,0.821-4.013,1.551c-0.821,0-0.821,0.821-1.551,0.821s-1.55-0.821-1.55-1.551c-0.821-1.551,0-4.014,0-5.564
		c0-2.371-0.821-5.563-0.821-8.756c0-2.372,0.821-4.743,0.821-6.385c0-3.192,0.821-6.385,1.55-9.578
		c0.821-4.742,0.821-10.397,2.372-15.141c0.821-4.743,2.372-9.577,3.192-13.591c-9.577,0.821-19.154,3.193-27.09,6.385
		c-0.821,0.821-0.821,2.372-1.551,4.014c-0.821,1.551-1.55,4.013-2.372,5.563c-0.821,5.564-2.371,11.128-3.192,16.783
		c0,3.192-0.821,5.564-1.551,8.756c-1.551,7.206-3.192,14.32-4.743,22.348c0,0.82,0,1.551-0.821,2.371
		c-0.821,0.821-1.551,0.821-2.372,1.551c-0.821,0.821-0.821,3.192-2.372,3.192c4.014-1.551,0.821-3.192,0.821-3.192
		c-0.821-0.821-0.821-2.371-0.821-3.192c-0.821-2.371-0.821-4.743,0-7.206c0-4.013,0.821-7.205,1.551-11.127
		c0-2.372,0.821-4.014,0.821-6.386c1.551-9.577,1.551-19.154,4.013-27.91c-2.371,0.82-6.385,2.371-9.577,1.551
		c-1.55-0.821-4.743-3.192-5.564-5.564c-0.821-1.551-1.55-4.013-1.55-6.385c0-0.821-0.821-2.371-0.821-3.192
		s0.821-0.821,1.551-0.821c1.551,0.821,2.372,0,4.014-0.82c1.55,0,3.192-0.821,4.743-0.821c3.192-0.82,7.206-2.371,10.398-4.014
		c0.821-2.371,0.821-5.563,1.55-8.756c1.551-6.385,2.372-11.948,4.014-18.333c0.821-2.372,0.821-5.564,1.55-7.936
		c0-0.821,0-1.551,0-2.372c0-0.82,0-1.55,0-2.371s0.821-2.371,0.821-3.192c0.821-2.372,1.551-4.743,1.551-6.385
		c0.821-5.564,1.551-11.949,3.192-18.334c1.55-5.563,4.013-11.128,4.743-16.783c0-2.371,0-4.742,0.821-7.205
		c0-1.551,1.55-2.371,1.55-3.192s0-2.371,0-4.014c2.372-10.397,6.385-20.705,8.756-31.103c0-1.551,0.821-3.192,0.821-4.013
		c0-1.551,0-3.193,0.821-4.014c0.821-1.551,1.551-3.192,1.551-4.013c0.821-3.192,1.55-6.384,1.55-9.577
		c0.821-1.551,0.821-3.192,1.551-4.743c0.821-1.55,4.013,0,4.743,0c0.73,0,1.551,0.821,2.372,0.821
		c1.551,0.821,2.372,0.821,3.192,1.551c0.821,0.821,1.551,1.551,2.372,2.372c1.551,1.55,3.192,3.193,4.014,5.564
		c0.821,1.551,0.821,3.192,0.821,4.743c0,1.55-1.551,3.192-1.551,4.743c-1.551,4.013-2.372,7.936-3.192,11.949
		c-4.013,10.398-7.206,22.348-11.128,33.475c-0.821,1.551-1.551,4.014-1.551,5.564c-1.55,4.743-1.55,10.398-3.192,15.141
		c-0.821,2.372-1.551,4.014-2.372,7.206c-0.821,2.372-1.55,4.743-1.55,7.206c-2.372,11.948-4.743,23.168-7.936,35.116
		C353.245,1096.972,350.052,1102.535,349.323,1108.92z M798.267,998.098c-3.192,7.206-6.385,13.591-8.757,22.348
		c-0.82,0.82-0.82,2.371-0.82,3.191c0,3.192-9.577,26.36-8.756,29.462c2.371-3.192,10.397-27.09,11.948-30.282
		c0-0.821,0-0.821,0-0.821C795.074,1014.789,797.446,1006.854,798.267,998.098L798.267,998.098z M440.99,1086.573
		c-4.743,4.743-8.756,9.577-12.77,14.32c-0.821,0.82-2.372,2.371-2.372,4.014C435.427,1103.356,441.811,1096.15,440.99,1086.573
		C441.811,1086.573,441.811,1086.573,440.99,1086.573z M528.736,1129.625c1.551,0.821,3.192,2.372,4.013,2.372
		s3.192-2.372,4.013-3.193c2.371-2.371,4.743-5.563,4.743-7.935c0-7.936-2.372-17.513-2.372-25.54c0,0,0,0-0.821,0
		c-7.205,7.936-10.397,18.334-16.783,27.091c1.551,1.55,2.372,4.013,4.013,5.563
		C527.094,1128.074,527.916,1128.804,528.736,1129.625z M712.163,1097.701c3.192-0.821,15.962-12.77,15.141-20.705
		C721.648,1075.445,713.714,1094.6,712.163,1097.701z"/>
	<path fill="#231F20" d="M542.235,895.211c0,4.013,1.55,7.935,1.55,12.77c2.372,0,7.936-2.372,7.206,1.55
		c0,2.372-4.743,1.551-7.206,2.372c0,4.743,0.822,9.577,1.551,14.32c2.372,0,8.756-2.372,9.578,0
		c0.821,3.192-11.128,3.192-12.77,2.372c-1.55-10.398-2.372-23.898-2.372-35.117c1.551-0.821,5.564-0.821,7.936-1.551
		c1.55,0,3.192-0.821,3.192,0.821C551.812,895.211,544.698,894.391,542.235,895.211z"/>
	<path fill="#231F20" d="M567.774,894.391c-1.551-2.372-5.563-0.822-6.384,1.55c-0.821,1.551-0.821,4.013,0,5.564
		c0.821,2.371,4.013,4.743,5.564,7.935c3.192,4.014,5.563,8.756,3.192,15.141c-2.372,3.193-8.756,4.743-11.949,0
		c-0.821-1.551-3.193-11.127,0.821-11.127c3.192,0,0,10.398,4.743,10.398c2.371,0,4.742-1.55,4.742-4.743
		c-0.82-7.935-9.577-11.127-10.398-19.975c0-1.551,0-3.192,1.551-4.743c3.192-5.564,11.128-4.014,11.128,3.192
		c0,0.821,0,3.192-1.551,3.192c-0.821,0-0.821-1.55-0.821-2.372C568.596,896.762,568.596,896.032,567.774,894.391z"/>
	<path fill="#231F20" d="M591.672,895.211c-1.551,1.55-4.742,0-6.385,0c0,8.756,0,17.512-0.82,26.36c0,0.821,0,2.372,0,3.192
		c0,1.551,0,3.192-2.372,3.192c-1.551-1.551-0.82-4.013-0.82-5.564c0.82-8.756,0.82-18.333,1.55-27.09c0,0.821-4.742,0-5.563,0
		c-0.82,0-2.371-0.821-1.551-1.55c0-0.821,2.372-0.821,3.192-0.821c2.372,0,4.014,0,6.385,0
		C587.75,892.019,592.493,892.019,591.672,895.211z"/>
	<path fill="#231F20" d="M613.198,928.686c0.821,0.821,1.551,2.372,2.372,3.192c0.82,0.821,1.55,1.551,2.371,2.372
		c1.551,0.821,3.192,0.821,4.013,1.551c3.192,0.821,6.386,2.372,9.578,2.372c1.55,0.821,4.013,0.821,5.563,0.821
		c7.206,0.821,14.32,0.821,21.526,1.551c6.384,0.821,12.77,2.372,19.154,4.013c7.936,2.372,17.513,5.563,23.897,11.128
		c0.82,0.821,5.563,5.564,2.371,7.206c-2.371,0.821-3.192-3.192-4.013-4.013c-2.372-2.372-5.564-3.192-7.936-4.743
		c-3.192-1.55-6.385-2.371-9.578-4.014c-7.205-2.371-14.319-4.013-21.525-5.563c-11.949-1.551-24.719-1.551-35.116-4.743
		c-4.743-1.55-10.398-2.371-12.771-7.206c-0.82-0.821-0.82-1.551-1.55-2.372c0-0.821,0-1.551-0.821-1.551s-1.551,0-1.551,0
		c-0.82,0-0.82-0.821-1.551-0.821c-2.371-1.55-4.013-4.013-4.013-6.385c-0.821-4.743,1.551-13.591,2.371-18.333
		c0.821-4.013,0.821-7.935,3.192-9.578c1.551-1.55,7.206-1.55,8.757-0.821c1.551,0.73,3.192,4.014,3.192,5.564
		c0,2.372-0.821,5.563-0.821,8.756c-0.82,4.744-1.551,8.757-2.371,12.77C615.661,924.673,614.84,927.135,613.198,928.686z
		 M606.084,914.365c-0.821,4.743-0.821,11.128,3.191,11.128c4.014,0.821,4.014-2.372,4.014-5.564
		c0.821-4.743,2.372-9.577,2.372-15.141c0-1.551,0.82-3.192,0.82-4.743c0-1.551-1.55-4.013-3.192-4.013
		c-1.55-0.821-4.014-0.821-4.742,1.55c-0.821,1.551,0,3.192-0.821,4.743c0,1.55-0.821,4.013-0.821,5.563
		C606.904,910.353,606.084,911.903,606.084,914.365z"/>
	<path fill="#231F20" d="M535.121,928.686c-3.192,2.372-4.743-0.821-6.385-4.013c-2.372-4.744-5.564-11.949-7.206-15.962
		c0,4.743,0.821,10.398,1.551,15.141c0,1.551,1.551,5.564-1.551,5.564c-2.371,0-2.371-7.936-3.192-10.398
		c-0.821-6.384-0.821-11.949-2.371-18.333c0-0.821,0-2.372,0-3.192c0-1.551,0.821-3.193,2.371-1.551
		c1.551,0.821,2.372,2.372,3.192,4.013c2.372,6.385,4.743,12.77,7.936,19.154c0-4.013-0.821-7.935-0.821-13.59
		c0-3.192-2.371-11.949,1.551-11.127c1.551,0.821,1.551,2.371,1.551,4.743C532.658,907.981,535.121,918.288,535.121,928.686z"/>
	<path fill="#231F20" d="M627.609,896.032c0.821,0,0.821,1.55,1.551,2.371c0,1.551,0,3.192-0.82,4.013
		c-0.821,4.744-1.551,10.398-2.372,15.962c0,2.372-0.821,4.744-0.821,6.385c0.821,2.372,3.193,4.013,5.564,4.013
		c4.014-0.821,4.014-6.385,4.743-11.127c0.82-4.744,1.551-7.936,2.371-13.591c0-2.372,0.821-5.564,2.372-5.564
		c1.55,0,0.82,4.014,0.82,7.206c-0.82,5.563-1.551,9.577-2.371,14.32c-0.821,5.563-1.551,10.398-6.385,11.949
		c-5.564,1.55-11.128-2.372-10.398-8.757c0-3.192,1.551-7.206,2.371-10.398c0.821-4.013,0.821-7.206,1.551-11.128
		C625.968,899.954,626.789,896.762,627.609,896.032L627.609,896.032z"/>
	<path fill="#231F20" d="M515.967,930.236c-3.193,1.551-3.193-4.743-4.014-7.206c-1.551-6.384-1.551-11.948-3.192-18.333
		c0-1.55-0.821-3.192-0.821-4.743c0-0.821-0.821-3.192,0.821-4.013c1.551-1.55,2.372,2.372,2.372,3.192s0,2.372,0.821,3.192
		c0.821,4.013,1.55,6.385,1.55,10.398C513.595,919.929,516.788,926.314,515.967,930.236z"/>
	<path fill="#231F20" d="M494.44,903.146c1.551,4.014,2.372,7.936,3.192,11.949c1.551,0,7.936-4.013,9.577-0.821
		c0.821,3.192-6.384,3.192-7.935,4.013c0,3.192,0.821,5.564,2.372,8.756c0.821,2.372,2.371,7.206-0.821,7.206
		c-2.372,0-3.193-6.385-4.014-8.756c0-1.551,0-3.192-0.821-4.014c-1.551-6.385-4.743-15.141-4.743-21.526
		c2.372,0,6.385-2.372,9.578-2.372c1.55,0,3.192,0,2.371,2.372S495.991,901.596,494.44,903.146z"/>
	<path fill="#231F20" d="M652.328,925.494c-1.551-0.821-3.192-1.551-4.743-2.372c-0.821,1.551-1.551,3.192-3.192,5.563
		c-0.821,0.821-0.821,1.551-1.551,2.372c0,0.821-0.82,0.821-0.82,0.821c-2.372,0.821-2.372-1.55-1.551-3.192
		c0.82-1.642,1.551-3.192,2.371-4.743c4.014-7.206,6.385-15.962,10.398-23.168c2.371-1.55,1.551,2.372,1.551,4.743
		c0,1.55,0,3.192,0.82,5.564c0,6.385-0.82,13.591-0.82,18.333c0,2.372,0,4.743-1.551,5.564
		C649.956,935.892,652.328,927.865,652.328,925.494z M648.314,920.75c1.551,0.821,2.371,1.551,4.014,1.551
		c0.821-3.193,0.821-8.757,0-12.77C651.507,912.724,649.956,916.737,648.314,920.75z"/>
	<path fill="#231F20" d="M668.29,903.967c-0.82,10.398-4.743,19.976-6.385,29.461c1.551,1.551,8.757,1.551,7.936,4.743
		c0,3.192-4.743,0-5.564,0c-2.371-0.821-5.563-0.821-6.385-2.372c-0.82-1.551,0.821-5.564,1.551-7.936
		c1.551-7.206,4.743-17.512,6.385-23.168C666.648,904.788,667.47,903.146,668.29,903.967z"/>
	<path fill="#231F20" d="M466.53,908.71c0.821,4.013,2.372,7.936,3.192,11.949l4.743-1.551c0.821,0,1.551-0.821,2.372-0.821
		c1.55,0,2.371,1.55,0.821,3.192c-1.551,0.821-3.192,1.55-4.743,1.55l-2.371,0.821c0.821,4.013,3.192,7.936,4.013,11.949
		c4.013-0.821,7.205-3.192,11.128-2.372c1.55,2.372-2.372,3.193-4.744,4.014c-3.192,0.821-7.206,3.192-8.756,0
		c-0.821-1.551-1.551-4.744-2.372-7.206c-2.372-7.206-5.564-15.962-6.385-23.897c2.371-0.821,7.936-4.013,10.398-3.192
		c0.821,0,1.551,0.821,1.551,0.821C476.107,907.981,468.08,907.981,466.53,908.71z"/>
	<path fill="#231F20" d="M683.432,907.981c1.551,0.821,0.82,3.192,0,4.013c-1.551,7.206-3.193,14.32-5.564,21.526
		c-0.821,2.372-1.551,8.756-4.743,7.206c-1.551-2.372,0.821-4.743,1.551-7.935c1.551-4.744,3.192-11.128,4.743-16.783
		C680.238,912.724,681.06,909.531,683.432,907.981L683.432,907.981z"/>
	<path fill="#231F20" d="M696.931,915.095c-0.821,5.564-4.014,10.398-5.564,15.141c-0.82,2.372-0.82,4.743-1.55,7.206
		c-0.821,1.55-1.551,6.384-3.192,6.384c-3.192,0-0.821-5.563,0-7.205c2.371-7.936,5.563-15.142,7.936-22.347
		c0,0-3.193-1.551-4.014-1.551c-0.821,0-0.821-0.821-1.551-0.821c0,0-0.821-2.372,0-2.372c2.371,0,4.743,0.821,8.757,2.372
		c2.371,0.821,5.563,1.551,5.563,3.192C704.136,919.108,698.572,915.916,696.931,915.095z"/>
	<path fill="#231F20" d="M464.158,935.071c0.821,0.821,0.821,2.372,1.551,3.192c0.821,1.55,1.55,4.013-0.821,4.013
		c-2.372,0.821-2.372-3.192-3.192-5.564s-3.193-6.385-3.193-8.756c-2.372,0.821-4.013,1.551-6.385,1.551l2.372,7.206
		c0.821,1.551,0.821,2.372,1.551,4.013c0,1.551,1.55,4.013-0.821,4.013c-1.551,0-2.372-2.372-2.372-4.013
		c-0.821-3.192-3.192-7.206-4.013-11.128c-1.551-4.013-2.372-7.935-3.193-11.949c0-0.821-1.55-3.192-0.821-4.013
		c0.821-2.372,3.192,1.551,3.192,2.372c0.821,0.821,0.821,2.371,0.821,3.192c0.821,2.372,2.372,4.744,2.372,7.206
		c2.371,0,4.743-1.55,7.205-2.371c-0.821-3.192-1.55-4.743-2.371-8.757c-0.821-2.372-2.372-6.384,0-6.384
		c1.55,0,2.371,3.192,2.371,4.013c0.821,1.551,0.821,4.014,1.551,5.564c0.821,2.372,1.551,5.564,2.372,7.935
		c0.821,1.551,0.821,2.372,1.55,4.013C463.337,933.429,463.337,934.25,464.158,935.071z"/>
	<path fill="#231F20" d="M706.508,915.916C707.328,915.916,707.328,915.916,706.508,915.916c0.82,1.551,0,4.013,0.82,4.743
		c0,3.192,0,5.564,0.821,8.756c1.551-1.551,4.743-3.192,7.206-4.743c0.82-0.821,1.551-2.372,2.371-3.193
		c0.821-0.821,2.371-1.551,3.192-0.821c0.821,1.55-1.551,4.014-2.371,4.743c-3.192,3.192-7.936,6.385-11.128,10.398
		c-0.821,3.192-2.372,7.936-4.014,11.949c-0.82,1.55-0.82,4.743-4.013,3.192c0-4.013,2.371-8.756,4.013-12.77
		c0.821-3.192,1.551-5.564,1.551-11.128c0-1.55-0.821-4.014-0.821-5.564c0-1.551,0-4.013,0.821-4.743
		C705.777,915.095,706.508,915.095,706.508,915.916z"/>
	<path fill="#231F20" d="M434.606,920.75c2.371,5.564,5.563,14.32,8.756,21.526c0.821,2.371,4.014,7.206,0.821,7.936
		c-2.372,0.821-3.193-4.014-4.014-6.385c-3.192-7.205-5.563-14.32-7.935-21.525c-2.372,0.821-4.014,2.372-6.385,1.55
		c-0.821-2.372,3.193-3.192,5.564-4.743c2.372-0.821,5.564-3.192,7.206-3.192c0.821,0,2.371,0,2.371,1.551
		C440.169,919.108,436.248,919.108,434.606,920.75z"/>
	<path fill="#231F20" d="M547.891,1012.418c4.743,0,10.398,0,14.32,0c0,1.551,0.82,3.192,0,4.743c-0.821,0.82-3.192,0-4.743,0
		c0,8.757,0,19.154,0,28.731c-0.821,0.821-4.014,0.821-4.743,0c0-9.577,0-19.154,0-29.461c-1.551,0-4.014,0-5.564,0
		C547.07,1016.432,546.249,1013.239,547.891,1012.418z"/>
	<path fill="#231F20" d="M577.352,1013.239c0,10.397,0,23.168,0,33.475c-0.82,0.821-3.191,0-4.742,0c-0.821-4.014,0-10.398,0-15.142
		c-0.821-0.82-2.372,0-3.192,0c0,4.743,0.82,11.128,0,15.142c-1.551,0-4.014,0.821-4.743-0.821c-0.821-10.397,0-22.347,0.82-32.653
		c1.551-0.821,3.193,0,4.743,0c0,4.014,0,8.756,0,12.77c0.821,0.82,2.372,0,3.192,0c0-4.014-0.82-9.577,0-13.591
		C574.16,1013.239,575.802,1013.239,577.352,1013.239z"/>
	<path fill="#231F20" d="M594.135,1013.969c0,0.82,0.82,3.192,0,4.013c-1.551,0.821-4.014,0-5.563,0c-0.821,2.372,0,6.386,0,8.757
		c1.55,0,4.013,0,5.563,0c0,0.821,0.82,3.192,0,4.014c-0.821,0.82-3.192,0-4.743,0.82c-0.82,3.192,0,6.385,0,9.577
		c1.551,0,4.014,0,5.563,0c0,0.821,0.822,2.372,0,4.014c-4.013,0.821-7.205,0.821-11.127,0c0-7.206-0.821-14.32-0.821-21.526
		c0-3.191-0.82-7.205,0.821-10.397C585.287,1013.239,590.942,1013.239,594.135,1013.969z"/>
	<path fill="#231F20" d="M582.095,1161.549c4.014-0.82,5.564,2.372,6.385,5.564c0.821,4.742,0,9.577,0,13.59
		c0,1.551,0,3.192,0,4.014c0,2.372,0.821,4.743-0.82,7.206c-1.551,1.551-4.014,3.192-6.385,3.192c-1.551,0-4.743-0.821-5.564-1.551
		c-2.371-2.371-1.55-18.334-1.55-23.897C575.802,1165.562,577.352,1162.37,582.095,1161.549z M584.558,1167.113
		c0-0.821-0.82-0.821-0.82-0.821c-1.551-0.82-2.372,0-3.193,1.551c-0.82,2.371,0,8.757,0,12.77c0,1.551,0,3.192,0,4.743
		c0,2.371,0,4.014,0.821,6.385c0,0.821,0.821,0.821,1.551,0.821c2.371,0,2.371-1.551,2.371-3.192
		c0.821-1.551,0.821-4.014,0.821-6.385c0-3.192,0-7.206,0-10.398c0-0.821,0-1.551,0-3.192
		C584.558,1167.934,584.558,1167.113,584.558,1167.113z"/>
	<path fill="#231F20" d="M570.146,1175.14c-1.551,0-3.192,0-4.014-0.82c-0.82-0.821-0.82-2.372-0.82-3.193
		c0-1.551,0.82-4.013-1.551-4.742c-2.372-0.821-3.192,2.371-3.192,4.013c0,2.372,0,7.936,0,11.949c0,3.192-0.821,7.936,1.55,8.756
		c4.743,1.551,2.372-5.563,4.013-8.756c0.821,0,3.192,0,4.014,0c0.821,4.014,0.821,10.397-1.551,11.948
		c-3.192,3.192-10.398,1.551-11.949-1.551c-0.821-0.82-0.821-2.371-0.821-4.013c-0.821-7.206,0.821-17.513,0.821-23.168
		c1.551-4.014,5.564-4.743,9.577-4.014c0.821,0,1.551,0.821,2.372,1.551c0.821,0.821,1.551,1.551,1.551,2.372
		c0,0.82,0,2.371,0,3.192C570.968,1168.755,570.146,1175.14,570.146,1175.14z"/>
	<path fill="#231F20" d="M460.145,1172.677c-0.821,0-3.193,0.821-3.193,0c-0.821-1.551,0.821-4.743-0.821-5.563
		c-4.743-2.372-4.743,4.013-2.372,7.206c2.372,3.192,7.206,7.205,7.206,12.77c0,4.013-0.821,9.577-6.385,9.577
		c-6.385,0-6.385-7.206-5.564-11.949c0.821,0,2.372-0.821,4.013,0c0.821,2.372-0.821,7.206,2.372,7.206
		c1.55-0.821,1.55-4.014,1.55-5.563c0-0.821-0.821-2.372-1.55-3.192c-1.551-3.193-5.564-6.386-6.385-8.757
		c-0.821-3.192,0-7.936,1.551-9.577c1.55-1.551,6.384-2.372,9.577-1.551C460.966,1163.921,460.966,1169.484,460.145,1172.677z"/>
	<path fill="#231F20" d="M468.901,1163.1c0.821,3.192,0,7.206,0,11.949s-0.821,9.577,0,12.77c0,2.371,1.55,5.563,4.743,4.014
		c1.551-4.014,0.821-8.757,0.821-14.32c0-4.743,0-10.398,0-14.32c0.821-0.821,3.192-0.821,4.013,0c0,5.563,0,11.128,0,17.512
		c0,4.014,0.821,8.757-0.821,12.771c-1.551,4.013-8.756,4.742-11.949,1.55c-0.821-1.55-1.551-4.742-2.372-7.935
		c0-3.193,0-7.936,0-12.77c0-4.014-0.821-10.398,1.551-11.128C466.53,1162.37,468.08,1162.37,468.901,1163.1z"/>
	<path fill="#231F20" d="M532.658,1163.1c1.551,3.192,2.372,7.206,4.013,10.398c1.551-3.192,3.192-6.385,4.013-10.398
		c0.821,0,3.193-0.82,4.014,0c0,2.372-1.551,5.564-2.372,7.936s-3.193,5.564-3.193,7.936c-0.821,5.563,1.551,11.128,0,16.783
		c-0.821,0-2.371,0-4.013,0c0-4.743,0-9.578,0-13.591c0-0.821,0-2.371,0-3.192c0-1.551-1.551-3.192-1.551-4.014
		c-0.821-1.551-0.821-3.192-1.551-4.743c-0.821-2.371-2.371-4.013-1.55-7.205C529.466,1162.37,531.108,1163.1,532.658,1163.1z"/>
	<path fill="#231F20" d="M609.275,1162.37c2.372,0,4.014,0,6.386,0c3.192,0,4.743,0.821,5.563,4.014
		c0.821,2.371,0.821,5.563,0.821,8.756c0,0.821-0.821,2.372-1.551,4.014c1.551,0.82,0.82,3.192,1.551,6.385
		c0,4.013,1.55,9.577-2.372,11.128c-2.371,0.82-7.205,0-10.398,0C608.455,1185.446,608.455,1173.498,609.275,1162.37
		C609.275,1163.1,609.275,1162.37,609.275,1162.37z M614.02,1166.292c0,3.192,0,6.385,0,10.398c0.82,0,1.551,0,2.371,0
		c0.821,0,1.551-0.821,1.551-2.371c0-2.372,0.82-5.564-0.821-7.206C615.661,1167.113,614.84,1166.292,614.02,1166.292z
		 M618.032,1181.434c0,0,0-0.821-0.82-0.821c-0.821,0-3.192-1.551-3.192,0c0,3.192,0,7.206,0,10.398c0.82,0.821,3.192,0,4.013,0
		c0,0,0-4.743,0-5.564C618.032,1184.626,618.854,1183.075,618.032,1181.434z"/>
	<path fill="#231F20" d="M640.379,1179.883c2.372,1.551,0,11.949,2.372,15.962c-1.551,0.821-4.014,0-5.564,0.821
		c-1.551-4.014,0.821-11.128-0.82-15.142c-0.821,0-1.551,0-2.372,0c-0.82,4.014,0,9.577,0,14.32c-1.551,0-4.013,0-5.563,0
		c0-10.398-0.821-22.347,0.821-31.924c4.742-0.821,12.77-1.551,13.59,3.192C642.751,1170.306,641.93,1177.512,640.379,1179.883z
		 M633.174,1167.113c0,4.013,0,7.206,0,10.398c0.82,0,3.192,0,3.192-0.821s0-1.551,0-2.371c0-0.821,0-1.551,0-2.372s0-1.551,0-3.192
		c0-0.821,0-1.551,0-2.371C636.366,1166.292,633.994,1167.113,633.174,1167.113z"/>
	<path fill="#231F20" d="M682.61,1195.845c-0.821-2.371-0.821-5.563-0.821-7.936c0-7.936,0-17.513,0.821-24.718
		c4.014-0.821,9.577-0.821,11.128,1.55c0.821,0.821,0.821,3.192,0.821,4.014c0,1.551,0,4.014,0,5.564c0,4.013,0,7.935,0,11.948
		c0,2.372,0,4.743,0,6.385C693.738,1197.396,686.624,1196.666,682.61,1195.845z M686.624,1167.113c0,7.936,0,16.782,0,23.897
		c1.55,0,3.192,0,4.013,0c-0.82-7.206,0.821-16.783-0.82-23.168C689.816,1167.113,687.444,1167.934,686.624,1167.113z"/>
	<path fill="#231F20" d="M506.389,1180.703c-0.821,4.743,0,10.398-0.821,15.142c-0.821,0.821-3.192,0.821-4.013,0
		c-0.821-9.577-0.821-22.347,0-31.924c1.551,0,9.577-1.551,11.127,0c0.821,0.82,1.551,3.192,1.551,3.192
		c0.821,3.192,0.821,11.128-1.551,12.77C511.132,1181.434,508.761,1180.703,506.389,1180.703z M509.582,1167.934
		c-1.551,0-3.192,0-4.013,0c0,2.372,0,5.564,0,7.936c2.372,0,3.192,0,4.743-0.82
		C510.402,1172.677,511.132,1169.484,509.582,1167.934z"/>
	<path fill="#231F20" d="M523.172,1163.1c0.821,7.936,0,18.334,0.821,27.09c1.55,0,5.564-0.82,7.206,0.821c0,1.551,0,4.013,0,4.743
		c-3.192,0-8.756,0.82-11.128-0.821c0-10.398-0.821-22.347,0.821-31.924C520.709,1163.1,522.351,1163.1,523.172,1163.1z"/>
	<path fill="#231F20" d="M653.149,1163.1c0.82,0,0.82,4.743,0.82,5.564c0,2.371,0.821,5.563,1.551,7.936
		c0.821,2.371,1.551,4.742,1.551,7.205c0.82,2.371,0.82,4.743,0.82,6.385c0,1.551,1.551,4.014,0.821,5.564
		c-1.551,0-3.192,0-4.014-0.821c0-2.371-0.821-4.743-0.821-6.385c-0.82-0.821-3.192,0-4.742,0c0,2.372,0,5.564-1.551,7.206
		c-0.821,0-3.192,0-4.014,0c0.821-10.398,2.372-22.348,4.743-32.654c0,0,0-0.82,0.821-0.82
		C650.686,1163.1,651.507,1163.1,653.149,1163.1z M649.956,1183.896c0.821,0,2.372,0,3.193,0c0-3.192-0.821-6.384-1.551-9.576
		C650.686,1177.512,650.686,1180.703,649.956,1183.896z"/>
	<path fill="#231F20" d="M677.046,1163.921c0,4.743,0,10.398,0,16.782c0,5.564,0.821,11.949-0.82,15.963
		c-0.821,0-3.192,0-4.743-0.821c-0.82-5.563-3.192-11.949-4.743-17.513c-0.82,5.563,0.821,11.949,0,18.334
		c-1.55,0.82-4.014,0-4.743-0.821c-0.82-9.577,0-22.347,0-31.924c1.551,0,3.193,0,4.743,0c2.372,4.743,4.743,10.398,5.564,16.782
		c0.82-4.742-0.821-11.948,0.82-16.782C673.854,1163.1,674.675,1163.1,677.046,1163.921z"/>
	<path fill="#231F20" d="M484.863,1163.1c4.014,0.821,7.206-1.551,10.398,0.821c1.551,0.82,3.193,13.591,1.551,15.962
		c-1.551,2.371-4.743,1.551-7.206,1.551c-0.821,4.013,0,10.398-0.821,14.32c-0.821,0-3.193,0-4.014-0.821
		C484.042,1184.626,484.042,1174.319,484.863,1163.1C484.863,1163.921,484.863,1163.1,484.863,1163.1z M488.877,1175.869
		c1.55,0,3.192,0,4.013-0.82c0-2.372,0-4.743-0.821-7.206c-0.821-0.821-2.371-0.821-4.013-0.821
		C488.877,1170.306,488.877,1173.498,488.877,1175.869z"/>
	<path fill="#231F20" d="M596.506,1189.46c0,2.372,0.821,5.563-0.82,6.385s-3.192,0-4.014-0.821c0-2.371,0-4.742,0-6.384
		C593.313,1187.818,594.864,1188.64,596.506,1189.46z"/>
	<path fill="#231F20" d="M585.287,1223.756c1.551-4.014-2.371-5.564-4.743-7.206c-20.705-2.371-16.782,23.897-1.55,24.718
		c6.385,0,13.59-3.191,19.975-5.563c1.551-0.82,4.743-1.551,6.385,0c1.551,2.372-1.551,4.743-0.82,5.563
		c4.742,1.552,10.398-5.563,15.141-4.742c2.372,0,5.564,3.192,3.192,6.385c52.63,0,103.708,0,157.888,0
		c2.372,0,8.756-0.82,9.577,0.821c0.821,3.192-7.936,1.55-10.397,1.55c-141.104,0-287.044,0-431.432,0
		c-2.372,0-11.128,0.821-10.398-1.55c0-1.551,7.206-0.821,8.756-0.821c52.629,0,104.438,0,156.337,0
		c0-1.551-2.371-3.192-0.821-5.564c7.936-2.371,12.77,4.014,19.154,4.014c1.551-2.371-4.013-3.192-2.371-6.385
		c1.55-3.192,9.577,3.192,11.949,4.014c4.743,1.551,11.948,3.192,17.512,1.551c7.206-1.551,11.949-10.398,8.757-17.514
		c-0.821-2.371-4.014-5.563-7.936-6.385c-4.743,0-10.398,2.372-9.578,7.937c4.014,0,4.014-4.014,7.936-4.014
		c7.206,0,7.206,10.397,0.821,12.77c-7.936,2.371-13.59-5.563-11.949-11.949c1.551-4.743,9.578-8.756,15.962-6.385
		c3.192,0.821,5.564,4.014,6.385,6.385c4.013,8.757-2.372,15.963-7.936,22.348c5.564-0.821,11.948,0,18.333,0
		c-3.192-5.564-9.577-15.142-4.742-23.168c1.55-3.192,5.563-5.564,10.397-6.385c3.192,0,8.757,0,11.128,2.371
		c6.385,6.385,0,18.334-7.936,16.783c-6.385-0.821-7.935-12.77,0-12.77C581.365,1221.384,582.916,1222.935,585.287,1223.756z"/>
	<path fill="#231F20" d="M627.609,1262.794c2.372,11.128,4.743,21.526,7.206,31.924c-2.372,0-5.563,0-8.756,0
		c-0.821-1.55-0.821-4.013-0.821-5.563c-0.821-0.82-3.192,0-4.743,0c-0.821,1.551-0.821,4.014-1.551,6.385
		c-1.551,0-6.385,0-7.936-0.821c2.372-11.128,4.014-21.525,7.206-31.924C621.225,1262.794,625.968,1262.064,627.609,1262.794z
		 M622.046,1282.77c0.82,0,0.82,0,1.55,0c0-1.551,0-4.014-0.82-4.743C622.775,1279.577,622.046,1280.397,622.046,1282.77z"/>
	<path fill="#231F20" d="M606.084,1263.615c0,10.398,0.82,23.168,0,31.924c-2.372,0-4.743,0-6.385-0.821
		c-0.821-4.742,0-9.576,0-14.32c-1.551,4.744-3.193,10.398-4.744,14.32c-1.55,0.821-4.013,0-6.384,0
		c-2.372-4.013-3.192-8.756-4.014-12.77c-0.82,4.014,0,9.577-0.82,11.949c-1.551,0.82-4.743,0.82-6.386,0
		c0-9.577-0.82-22.347,0-31.104c2.372-0.82,6.386,0,8.757,0c2.371,4.743,3.192,11.949,5.563,16.783
		c2.372-4.743,3.192-11.128,5.564-16.783C599.699,1262.794,602.892,1262.794,606.084,1263.615z"/>
	<path fill="#231F20" d="M458.503,1263.615c0,1.551,0,4.014,0,6.385c-1.551,0-3.192,0-4.743,0c-1.55,8.756,0,15.962-0.821,24.718
		c-2.371,0-4.743,0-7.935,0c-0.821-7.205,0-16.782,0-24.718c-1.551-0.821-3.193,0-6.385-0.821c-0.821-1.551,0-4.013,0-5.563
		C446.555,1263.615,452.118,1263.615,458.503,1263.615z"/>
	<path fill="#231F20" d="M515.146,1263.615c4.013,0.82,10.397-0.821,13.59,0c8.756,3.192,4.013,15.962,5.563,27.09
		c-1.55,6.385-13.59,4.743-19.976,4.013C514.324,1285.142,514.324,1274.014,515.146,1263.615
		C514.324,1263.615,515.146,1263.615,515.146,1263.615z M521.53,1270c0,6.385,0,12.77,0,19.154c0.821,0,4.013,0,4.743-0.82
		c1.55-4.744,1.55-14.32,0-18.334C525.543,1270,523.172,1270,521.53,1270z"/>
	<path fill="#231F20" d="M686.624,1263.615c-1.551,5.563-4.743,9.577-7.206,14.32c2.371,7.206,7.206,10.398,10.398,16.782
		c-4.014,0-7.206,0.821-11.129,0c-1.55-2.371-4.013-5.563-5.563-7.935c-0.82,2.371,0,6.385-0.82,7.935c-2.372,0-5.564,0-7.936,0
		c-0.821-9.576-0.821-21.525,0-31.924c2.371,0,5.563,0,7.936,0c0.82,2.372,0,5.564,0,7.936c1.55-3.192,3.192-5.563,5.563-8.756
		C681.06,1263.615,684.252,1263.615,686.624,1263.615z"/>
	<path fill="#231F20" d="M479.299,1277.936c4.743,2.371,1.551,11.948,4.743,15.962c-2.371,0.82-7.205,0.82-9.577,0
		c-2.372-3.192,1.551-13.591-4.014-13.591c-0.821,4.014,0,9.577-0.821,13.591c-1.551,0-4.743,0.82-7.206,0
		c-0.821-9.577,0-21.526,0-30.282c5.564,0,15.141-2.371,17.513,3.192C482.492,1270,481.671,1276.385,479.299,1277.936z
		 M470.452,1275.563c1.551,0,2.372,0,3.193-0.82c0-1.551,0-3.192-0.821-4.743c-0.821-0.821-2.372,0-3.192-0.821
		C470.452,1271.551,470.452,1273.192,470.452,1275.563z"/>
	<path fill="#231F20" d="M655.521,1277.936c4.743,2.371,1.551,11.948,4.743,15.962c-2.372,0.82-7.206,0.82-9.578,0
		c-2.371-3.192,1.551-13.591-4.013-13.591c-0.821,4.014,0,9.577-0.821,13.591c-1.55,0-4.742,0.82-7.205,0
		c-0.821-9.577,0-21.526,0-30.282c5.563,0,15.141-2.371,17.512,3.192C658.713,1270,657.892,1276.385,655.521,1277.936z
		 M646.764,1275.563c1.551,0,2.372,0,3.192-0.82c0-1.551,0-3.192-0.82-4.743c-0.821-0.821-2.372,0-3.192-0.821
		C646.764,1271.551,646.764,1273.192,646.764,1275.563z"/>
	<path fill="#231F20" d="M502.376,1263.615c2.372,4.014,2.372,9.577,4.013,15.141c0.821,5.564,3.192,10.398,4.013,15.142
		c-1.551,0.82-4.743,0-7.935,0c-0.821-2.372-1.551-4.743-2.372-7.206c-0.821-0.821-2.372,0-4.014,0
		c-0.821,2.371-1.55,4.743-0.821,7.206c-3.192,0-6.384,0-8.756,0c1.55-9.577,4.013-20.705,7.206-30.282
		C495.991,1264.436,499.184,1263.615,502.376,1263.615z M496.812,1281.128c0.821,0,1.55,0,1.55,0
		c-0.821-1.551-0.821-3.192-0.821-4.743C497.633,1277.936,497.633,1279.577,496.812,1281.128z"/>
	<path fill="#231F20" d="M789.51,1309.859c0,4.014-5.563,2.371-9.576,2.371c-11.949,0-23.898,0-35.847,0
		c-12.77,0-25.539-0.82-39.039,0c-24.718,0.821-72.604-0.82-105.258,0c0,1.551,1.551,3.193,0.821,4.744
		c-1.551,4.013-8.757,0.82-11.949-0.822c-1.551,6.386-6.385,0.822-10.397-0.82c-2.372-0.821-5.564-2.371-8.757-1.551
		c-3.192,0.821-5.564,7.206-3.192,10.398c1.551,2.371,7.206,4.014,8.756-0.821c-1.55-0.82-3.192,2.372-5.563,0.821
		c-3.192-2.371,0-5.563,1.551-5.563c2.371-0.821,6.385,0.82,6.385,3.192c2.371,7.936-9.577,9.577-12.77,5.563
		c-4.014-4.014-0.821-11.948,3.192-15.142c-3.192,0-7.206,0-10.398,0c0.821,3.193,4.013,4.744,4.013,7.936
		c0.821,6.385-4.743,10.398-10.398,9.578c-4.013-0.822-5.564-6.386-3.192-9.578c2.372-2.371,9.577-2.371,8.756,2.372
		c-0.821,4.013-4.743,1.55-7.206,2.371c1.55,4.013,8.756,1.551,8.756-2.371c0.821-3.192-2.372-7.206-4.743-7.936
		c-6.385-1.551-10.398,7.936-15.962,4.743c-0.821-0.821-1.55-1.551-1.55-3.193c-2.372,3.193-14.32,3.193-9.577-4.013
		c-59.014,0-120.399,0-179.414,0c-2.372,0-10.398,0.821-11.128-0.821c-0.821-2.371,5.564-1.55,7.936-1.55
		c23.897-1.551,48.616,0,71.784,0c69.412,0,136.362,0,205.774,0c19.154,0,43.052,0,53.449,0c9.578,0,27.911,0,45.424,0
		c19.976,0,40.68,0,60.564,0C784.676,1309.038,787.868,1308.309,789.51,1309.859z"/>
	<path fill="#231F20" d="M556.647,1263.615c0.821,1.551,0.821,5.563,0,7.206c-1.55,0-4.743,0.82-7.936,0c0,1.55,0,3.192,0,4.742
		c2.372,0,5.564-0.82,7.936,0c0.821,1.551,0.821,4.743,0,6.385c-2.372,0.821-4.743,0.821-7.936,0.821c-0.821,1.551,0,4.014,0,5.564
		c2.372,0,5.564,0,7.936,0c0.821,1.55,0.821,4.742,0,6.384c-4.014,0.821-10.398,0-15.141,0.821c-0.821-9.577-0.821-22.347,0-31.924
		C546.249,1262.794,552.633,1262.794,556.647,1263.615z"/>
</g>
</svg>
